<svg width="24" height="24" viewBox="0 0 24 24" fill="none" xmlns="http://www.w3.org/2000/svg">
<path d="M20.4 0.00610352H3.6C1.61177 0.00610352 0 1.61788 0 3.6061V20.4061C0 22.3943 1.61177 24.0061 3.6 24.0061H20.4C22.3882 24.0061 24 22.3943 24 20.4061V3.6061C24 1.61788 22.3882 0.00610352 20.4 0.00610352Z" fill="#10022C"/>
<path d="M20.4 0.00610352H3.6C1.61177 0.00610352 0 1.61788 0 3.6061V20.4061C0 22.3943 1.61177 24.0061 3.6 24.0061H20.4C22.3882 24.0061 24 22.3943 24 20.4061V3.6061C24 1.61788 22.3882 0.00610352 20.4 0.00610352Z" fill="url(#paint0_linear_9779_12115)"/>
<path d="M12.7882 7.47295C12.9146 7.41591 12.8878 7.19706 12.7526 7.16707C10.7332 6.71896 9.16102 4.93113 8.82386 2.68825C8.80154 2.53973 8.53913 2.50442 8.48482 2.64422C7.61519 5.32373 5.73314 7.42101 3.22894 8.44341C3.10727 8.50108 3.13196 8.70484 3.26266 8.73623C5.23512 9.21001 6.76623 10.9658 7.10912 13.1648C7.13174 13.3099 7.37239 13.3427 7.42725 13.2067C8.42962 10.4029 10.3493 8.29676 12.7882 7.47295Z" fill="#F8F7F6"/>
<path fill-rule="evenodd" clip-rule="evenodd" d="M15.1347 20.7061C12.552 20.7061 10.6968 18.6381 10.6968 15.8081C10.6968 12.9782 12.552 10.9283 15.1347 10.9283C16.3351 10.9283 17.481 11.5269 17.9903 12.307V7.26392H20.1001V20.5247H17.9903V19.3093C17.481 20.0893 16.3351 20.7061 15.1347 20.7061ZM15.4803 18.8739C16.8444 18.8739 17.863 17.8217 17.9903 16.3886V15.1913C17.863 13.7582 16.8444 12.7605 15.4803 12.7605C13.9525 12.7605 12.8612 13.9759 12.8612 15.79C12.8612 17.604 13.9525 18.8739 15.4803 18.8739Z" fill="#F8F7F6"/>
<defs>
<linearGradient id="paint0_linear_9779_12115" x1="-3.75" y1="-5.1689" x2="24.75" y2="24.0061" gradientUnits="userSpaceOnUse">
<stop offset="0.0601577" stop-color="#10022C"/>
<stop offset="0.200258" stop-color="#611F93"/>
<stop offset="0.289616" stop-color="#8223A1"/>
<stop offset="0.366456" stop-color="#9325A5"/>
<stop offset="0.459136" stop-color="#C52599" stop-opacity="0.9"/>
<stop offset="0.563509" stop-color="#D52C86"/>
<stop offset="0.658104" stop-color="#EA2F6F"/>
<stop offset="0.73655" stop-color="#F64850"/>
<stop offset="0.895954" stop-color="#FD6D2D"/>
<stop offset="0.955002" stop-color="#FF9E0E" stop-opacity="0.95"/>
</linearGradient>
</defs>
</svg>
